<?xml version="1.0" encoding="UTF-8" standalone="no"?>
<svg
   xmlns:dc="http://purl.org/dc/elements/1.1/"
   xmlns:cc="http://creativecommons.org/ns#"
   xmlns:rdf="http://www.w3.org/1999/02/22-rdf-syntax-ns#"
   xmlns:svg="http://www.w3.org/2000/svg"
   xmlns="http://www.w3.org/2000/svg"
   viewBox="0 0 1296.5067 1210.6667"
   height="1210.6667"
   width="1296.5067"
   xml:space="preserve"
   id="svg2"
   version="1.1"><metadata
     id="metadata8"><rdf:RDF><cc:Work
         rdf:about=""><dc:format>image/svg+xml</dc:format><dc:type
           rdf:resource="http://purl.org/dc/dcmitype/StillImage" /></cc:Work></rdf:RDF></metadata><defs
     id="defs6"><clipPath
       id="clipPath14"
       clipPathUnits="userSpaceOnUse"><path
         id="path12"
         d="M 0,0 H 2153.38 V 1080 H 0 Z" /></clipPath><clipPath
       id="clipPath22"
       clipPathUnits="userSpaceOnUse"><path
         id="path20"
         d="M 0,1080 H 2153.38 V 0 H 0 Z" /></clipPath></defs><g
     clip-path="url(#clipPath14)"
     transform="matrix(1.3333333,0,0,-1.3333333,-100,1440)"
     id="g10"><g
       id="g16"><g
         clip-path="url(#clipPath22)"
         id="g18"><g
           transform="translate(457.5049,813.8477)"
           id="g24"><path
             id="path26"
             style="fill:#4a1918;fill-opacity:1;fill-rule:nonzero;stroke:none"
             d="m 0,0 c 0,24.171 -7.001,42.303 -20.995,54.396 -14.002,12.086 -35.474,18.132 -64.417,18.132 -11.138,0 -19.086,-2.229 -23.858,-6.68 -4.771,-4.458 -7.478,-9.864 -8.112,-16.223 -0.64,-6.367 -0.954,-17.655 -0.954,-33.879 v -91.614 c 9.544,-0.641 16.537,-0.954 20.996,-0.954 C -32.447,-76.822 0,-51.22 0,0 m -192.772,-228.082 c 11.13,0.313 19.086,2.863 23.857,7.634 4.772,4.772 7.471,10.416 8.112,16.939 0.634,6.517 0.954,17.894 0.954,34.117 V 36.742 c 0,13.36 0.477,24.812 1.432,34.355 l -34.355,-1.909 v 20.996 c 33.08,0.633 58.049,0.954 74.914,0.954 15.268,0 26.72,-0.165 34.355,-0.478 C -38.65,90.019 -5.809,82.467 15.03,67.995 35.861,53.516 46.284,32.604 46.284,5.249 46.597,-16.7 40.082,-36.428 26.72,-53.918 13.36,-71.417 -9.864,-83.502 -42.944,-90.183 c 5.404,-4.137 10.333,-9.066 14.792,-14.792 4.45,-5.726 10.497,-14.635 18.131,-26.721 l 32.447,-51.056 c 6.994,-11.139 12.802,-19.645 17.417,-25.528 4.607,-5.89 10.177,-10.661 16.7,-14.315 6.517,-3.66 14.553,-5.487 24.097,-5.487 v -15.746 H 20.518 c -8.59,7.314 -15.829,14.866 -21.711,22.665 -5.89,7.791 -12.809,17.893 -20.757,30.299 l -31.969,51.056 -6.203,10.021 c -5.092,8.589 -9.544,15.582 -13.36,20.995 -3.818,5.406 -7.956,10.177 -12.407,14.314 -2.863,-0.32 -7.321,-0.477 -13.361,-0.477 -8.588,0 -14.956,0.157 -19.086,0.477 v -92.568 c 0,-16.865 -0.477,-29.428 -1.431,-37.696 l 34.355,1.909 v -20.995 h -107.36 z" /></g><g
           transform="translate(727.0986,727.9595)"
           id="g28"><path
             id="path30"
             style="fill:#4a1918;fill-opacity:1;fill-rule:nonzero;stroke:none"
             d="m 0,0 c 0,19.086 -4.294,35.466 -12.883,49.147 -8.589,13.674 -21.471,20.518 -38.648,20.518 -39.449,0 -62.83,-23.225 -70.144,-69.665 z m -115.232,-150.067 c -17.655,10.333 -31.574,25.125 -41.752,44.376 -10.184,19.243 -15.269,41.431 -15.269,66.564 0,22.262 5.085,43.182 15.269,62.746 10.178,19.564 24.41,35.228 42.707,47.001 18.286,11.764 39.045,17.654 62.268,17.654 18.132,0 34.512,-3.981 49.147,-11.928 C 11.765,68.39 23.381,56.543 31.97,40.797 40.559,25.051 44.855,5.726 44.855,-17.178 l -167.959,-2.864 c -0.324,-38.172 5.961,-67.919 18.845,-89.228 12.886,-21.315 32.843,-31.97 59.884,-31.97 14.63,0 29.658,3.818 45.091,11.452 15.428,7.635 27.274,17.015 35.548,28.153 l 11.454,-9.543 c -12.095,-18.453 -27.758,-32.134 -47.002,-41.036 -19.25,-8.902 -38.098,-13.361 -56.541,-13.361 -21.949,0 -41.753,5.175 -59.407,15.508" /></g><g
           transform="translate(814.416,584.334)"
           id="g32"><path
             id="path34"
             style="fill:#4a1918;fill-opacity:1;fill-rule:nonzero;stroke:none"
             d="m 0,0 c 9.224,0 15.821,2.304 19.804,6.919 3.973,4.608 6.358,10.498 7.156,17.655 0.792,7.157 1.193,18.371 1.193,33.64 v 108.792 c 0,9.223 0.635,19.563 1.91,31.015 l -33.879,-1.908 v 20.04 c 18.766,0 32.209,1.111 40.319,3.341 8.111,2.221 14.392,5.404 18.849,9.543 H 69.189 V 36.264 c 0,-14.314 -0.64,-25.132 -1.91,-32.447 l 30.063,1.432 v -19.563 l -97.342,0 z" /></g><g
           transform="translate(286.6646,395.5791)"
           id="g36"><path
             id="path38"
             style="fill:#471818;fill-opacity:1;fill-rule:nonzero;stroke:none"
             d="m 0,0 c -12.216,7.406 -21.75,17.494 -28.606,30.261 -6.857,12.765 -10.284,26.95 -10.284,42.553 0,15.446 3.11,29.945 9.338,43.501 6.225,13.554 15.522,24.547 27.897,32.98 12.371,8.43 27.306,12.648 44.801,12.648 17.335,0 33.253,-4.809 47.755,-14.421 l -1.182,12.766 h 12.766 V 105.44 h -8.51 c -1.578,14.659 -6.738,26.123 -15.485,34.399 -8.748,8.274 -19.977,12.411 -33.69,12.411 -11.193,0 -21.395,-3.114 -30.615,-9.338 -9.22,-6.227 -16.513,-15.094 -21.869,-26.597 -5.359,-11.506 -8.038,-24.823 -8.038,-39.955 0,-14.501 2.837,-27.464 8.511,-38.889 5.674,-11.429 13.317,-20.332 22.933,-26.715 9.611,-6.384 20.25,-9.574 31.915,-9.574 10.558,0 20.723,2.364 30.498,7.091 9.77,4.729 17.808,11.426 24.115,20.096 l 6.146,-4.965 C 99.254,10.638 88.773,1.691 76.953,-3.429 65.132,-8.548 53.312,-11.113 41.491,-11.113 26.042,-11.113 12.212,-7.407 0,0" /></g><g
           transform="translate(498.4897,408.1074)"
           id="g40"><path
             id="path42"
             style="fill:#471818;fill-opacity:1;fill-rule:nonzero;stroke:none"
             d="m 0,0 c 5.437,9.458 8.157,21.196 8.157,35.227 0,15.918 -2.956,29.551 -8.866,40.899 -5.91,11.348 -14.776,17.022 -26.597,17.022 -11.665,0 -20.449,-4.809 -26.361,-14.421 -5.909,-9.615 -8.864,-21.437 -8.864,-35.462 0,-10.088 1.377,-19.505 4.136,-28.252 2.756,-8.747 6.934,-15.803 12.53,-21.159 5.593,-5.359 12.412,-8.038 20.45,-8.038 11.503,0 19.978,4.728 25.415,14.184 m -57.212,-15.957 c -9.066,5.12 -16.236,12.253 -21.514,21.395 -5.283,9.14 -7.92,19.463 -7.92,30.97 0,12.294 2.6,23.443 7.801,33.453 5.201,10.007 12.331,17.887 21.396,23.642 9.062,5.751 19.109,8.629 30.143,8.629 10.875,0 20.883,-2.641 30.025,-7.919 9.139,-5.283 16.349,-12.494 21.632,-21.633 5.278,-9.142 7.92,-19.309 7.92,-30.497 0,-11.98 -2.642,-23.015 -7.92,-33.098 C 19.068,-1.103 11.898,-9.064 2.837,-14.893 c -9.065,-5.83 -19.112,-8.749 -30.143,-8.749 -10.875,0 -20.845,2.566 -29.906,7.685" /></g><g
           transform="translate(550.8545,395.3418)"
           id="g44"><path
             id="path46"
             style="fill:#471818;fill-opacity:1;fill-rule:nonzero;stroke:none"
             d="m 0,0 c 4.569,0 7.839,1.141 9.812,3.428 1.967,2.282 3.11,5.12 3.427,8.511 0.313,3.387 0.55,9.021 0.709,16.904 l 0.236,53.902 c 0,6.62 0.314,11.739 0.946,15.367 L -1.655,97.167 v 9.929 c 9.298,0 15.68,0.509 19.149,1.537 3.465,1.023 6.383,2.638 8.747,4.846 h 6.857 c 0.314,-2.996 0.627,-7.801 0.946,-14.421 5.355,4.728 11.465,8.547 18.321,11.466 6.857,2.914 13.595,4.373 20.214,4.373 13.712,0 23.719,-4.295 30.025,-12.883 6.301,-8.593 9.456,-21.951 9.456,-40.074 V 17.967 c 0,-7.092 -0.318,-12.451 -0.945,-16.075 l 14.894,0.709 V -7.093 H 77.78 V 0 c 4.57,0 7.839,1.141 9.811,3.428 1.97,2.282 3.152,5.201 3.547,8.747 0.391,3.546 0.591,9.102 0.591,16.668 V 61.94 c -0.16,13.554 -2.365,23.76 -6.62,30.617 -4.256,6.856 -10.957,10.283 -20.095,10.283 -5.675,0 -11.311,-1.418 -16.904,-4.255 -5.597,-2.837 -10.206,-6.542 -13.831,-11.111 0.157,-1.737 0.238,-4.81 0.238,-9.221 L 34.279,17.967 c 0,-7.092 -0.317,-12.451 -0.946,-16.075 L 48.229,2.601 V -7.093 L 0,-7.093 Z" /></g><g
           transform="translate(779.2295,466.5029)"
           id="g48"><path
             id="path50"
             style="fill:#471818;fill-opacity:1;fill-rule:nonzero;stroke:none"
             d="M 0,0 C 0,9.456 -2.127,17.572 -6.383,24.351 -10.638,31.125 -17.021,34.517 -25.532,34.517 -45.077,34.517 -56.661,23.01 -60.286,0 Z m -57.094,-74.353 c -8.747,5.121 -15.643,12.45 -20.686,21.988 -5.045,9.533 -7.566,20.526 -7.566,32.979 0,11.031 2.521,21.396 7.566,31.088 5.043,9.694 12.093,17.454 21.16,23.287 9.059,5.829 19.345,8.747 30.851,8.747 8.984,0 17.1,-1.972 24.351,-5.91 7.248,-3.941 13.002,-9.81 17.259,-17.612 4.255,-7.802 6.383,-17.377 6.383,-28.726 L -60.994,-9.93 c -0.159,-18.913 2.954,-33.652 9.338,-44.209 6.383,-10.56 16.273,-15.84 29.67,-15.84 7.248,0 14.695,1.892 22.341,5.674 7.643,3.784 13.513,8.43 17.613,13.949 l 5.674,-4.729 C 17.65,-64.228 9.89,-71.006 0.355,-75.416 c -9.538,-4.411 -18.876,-6.621 -28.014,-6.621 -10.876,0 -20.687,2.565 -29.435,7.684" /></g><g
           transform="translate(850.624,387.4229)"
           id="g52"><path
             id="path54"
             style="fill:#471818;fill-opacity:1;fill-rule:nonzero;stroke:none"
             d="m 0,0 c -6.146,1.968 -11.429,4.45 -15.84,7.445 l 0.946,-8.273 h -9.928 l -1.42,40.663 h 7.33 c 0.314,-6.465 2.087,-12.217 5.318,-17.258 3.229,-5.047 7.485,-9.025 12.767,-11.939 5.278,-2.919 10.912,-4.374 16.903,-4.374 6.776,0 12.805,1.614 18.086,4.847 5.279,3.229 7.92,7.839 7.92,13.83 0,4.412 -1.3,8.116 -3.901,11.112 -2.6,2.991 -5.833,5.474 -9.692,7.447 -3.865,1.968 -9.261,4.291 -16.194,6.975 -8.357,3.149 -15.054,6.104 -20.097,8.864 -5.045,2.756 -9.379,6.502 -13.002,11.229 -3.627,4.73 -5.438,10.717 -5.438,17.968 0,5.202 1.261,10.403 3.783,15.605 2.519,5.2 6.775,9.61 12.767,13.238 5.987,3.624 13.948,5.437 23.878,5.437 4.883,0 9.888,-0.79 15.012,-2.363 5.119,-1.578 9.888,-4.179 14.303,-7.802 l -0.473,8.984 h 9.93 V 80.262 h -7.565 c -0.474,9.138 -3.275,17.059 -8.394,23.759 -5.123,6.698 -12.334,10.048 -21.632,10.048 -7.092,0 -12.729,-1.772 -16.903,-5.319 -4.178,-3.547 -6.266,-7.765 -6.266,-12.648 0,-4.573 1.379,-8.434 4.138,-11.585 2.756,-3.155 6.184,-5.831 10.284,-8.037 4.097,-2.209 9.612,-4.651 16.548,-7.33 8.194,-3.309 14.813,-6.382 19.86,-9.219 5.043,-2.838 9.338,-6.583 12.885,-11.23 3.546,-4.651 5.318,-10.284 5.318,-16.905 0,-7.565 -1.931,-13.948 -5.792,-19.15 C 51.576,7.445 46.533,3.546 40.31,0.944 34.082,-1.655 27.425,-2.957 20.333,-2.957 12.922,-2.957 6.147,-1.97 0,0" /></g><g
           transform="translate(432.769,523.0654)"
           id="g56"><path
             id="path58"
             style="fill:#471818;fill-opacity:1;fill-rule:nonzero;stroke:none"
             d="M 0,0 C 1.941,1.072 3.578,2.448 4.911,4.129 4.853,5.056 4.825,6.65 4.825,8.911 l 0.086,25.036 c -2.724,2.028 -5.94,3.043 -9.649,3.043 -4.172,0 -7.534,-1.725 -10.084,-5.172 -2.551,-3.449 -3.825,-8.013 -3.825,-13.693 0,-5.911 1.13,-10.679 3.391,-14.3 2.259,-3.623 5.446,-5.433 9.562,-5.433 1.854,0 3.751,0.536 5.694,1.608 m -18.474,-3.173 c -2.839,1.796 -5.071,4.347 -6.693,7.651 -1.623,3.303 -2.435,7.156 -2.435,11.562 0,4.635 0.957,8.808 2.87,12.518 1.913,3.708 4.564,6.607 7.954,8.693 3.391,2.086 7.229,3.129 11.519,3.129 1.795,0 3.636,-0.247 5.52,-0.738 1.883,-0.494 3.433,-1.059 4.65,-1.696 v 11.91 c 0,2.202 0.088,4.086 0.262,5.651 L -1,55.159 v 3.651 c 3.419,0 5.869,0.202 7.346,0.608 1.478,0.406 2.622,0.985 3.434,1.739 h 2.521 V 4.737 c 0,-1.854 -0.117,-3.824 -0.348,-5.91 l 6.172,0.347 V -4.477 H 5.694 C 5.403,-2.912 5.201,-1.405 5.085,0.044 3.404,-1.812 1.361,-3.26 -1.043,-4.303 c -2.406,-1.043 -4.999,-1.565 -7.781,-1.565 -3.594,0 -6.81,0.899 -9.65,2.695" /></g><g
           transform="translate(488.9263,525.8906)"
           id="g60"><path
             id="path62"
             style="fill:#471818;fill-opacity:1;fill-rule:nonzero;stroke:none"
             d="m 0,0 c 2,3.478 3,7.794 3,12.953 0,5.854 -1.087,10.867 -3.26,15.04 -2.174,4.173 -5.434,6.259 -9.781,6.259 -4.289,0 -7.519,-1.769 -9.692,-5.303 -2.174,-3.536 -3.26,-7.883 -3.26,-13.04 0,-3.71 0.506,-7.173 1.521,-10.388 1.013,-3.217 2.55,-5.812 4.607,-7.781 2.057,-1.97 4.565,-2.955 7.52,-2.955 4.23,0 7.346,1.737 9.345,5.215 m -21.038,-5.867 c -3.333,1.882 -5.969,4.505 -7.91,7.867 -1.943,3.36 -2.912,7.156 -2.912,11.388 0,4.52 0.956,8.619 2.868,12.301 1.913,3.68 4.534,6.577 7.868,8.693 3.332,2.116 7.026,3.173 11.083,3.173 3.999,0 7.679,-0.971 11.041,-2.912 3.361,-1.943 6.012,-4.594 7.954,-7.954 1.941,-3.362 2.913,-7.1 2.913,-11.214 0,-4.406 -0.972,-8.463 -2.913,-12.171 -1.942,-3.709 -4.579,-6.637 -7.91,-8.781 -3.334,-2.143 -7.028,-3.216 -11.085,-3.216 -3.998,0 -7.665,0.943 -10.997,2.826" /></g><g
           transform="translate(518.5269,518.2842)"
           id="g64"><path
             id="path66"
             style="fill:#471818;fill-opacity:1;fill-rule:nonzero;stroke:none"
             d="m 0,0 c -2.26,0.725 -4.203,1.637 -5.825,2.738 l 0.348,-3.042 h -3.651 l -0.521,14.952 h 2.694 c 0.116,-2.377 0.768,-4.492 1.956,-6.346 1.187,-1.856 2.752,-3.319 4.694,-4.39 1.941,-1.073 4.013,-1.608 6.216,-1.608 2.491,0 4.709,0.593 6.651,1.782 1.94,1.187 2.912,2.883 2.912,5.086 0,1.621 -0.478,2.984 -1.434,4.085 -0.957,1.1 -2.145,2.014 -3.565,2.739 -1.42,0.724 -3.405,1.578 -5.955,2.565 -3.072,1.158 -5.535,2.245 -7.389,3.259 -1.855,1.013 -3.448,2.391 -4.781,4.129 -1.334,1.739 -1.999,3.941 -1.999,6.608 0,1.912 0.462,3.824 1.39,5.737 0.927,1.912 2.491,3.535 4.695,4.868 2.202,1.333 5.128,2 8.78,2 1.796,0 3.636,-0.291 5.52,-0.87 1.883,-0.58 3.636,-1.536 5.259,-2.869 l -0.174,3.304 h 3.652 V 29.514 h -2.782 c -0.174,3.36 -1.204,6.273 -3.086,8.736 -1.884,2.463 -4.536,3.695 -7.955,3.695 -2.608,0 -4.68,-0.652 -6.215,-1.956 -1.537,-1.304 -2.304,-2.855 -2.304,-4.651 0,-1.682 0.507,-3.101 1.521,-4.259 1.014,-1.16 2.274,-2.145 3.782,-2.956 1.506,-0.812 3.535,-1.71 6.085,-2.695 3.013,-1.217 5.447,-2.347 7.302,-3.39 1.855,-1.044 3.434,-2.421 4.739,-4.13 1.303,-1.71 1.955,-3.781 1.955,-6.216 0,-2.782 -0.71,-5.129 -2.129,-7.041 C 18.965,2.738 17.11,1.305 14.822,0.348 12.531,-0.608 10.083,-1.087 7.476,-1.087 4.751,-1.087 2.26,-0.724 0,0" /></g><g
           transform="translate(825.2812,974.5088)"
           id="g68"><path
             id="path70"
             style="fill:#e7aa27;fill-opacity:1;fill-rule:nonzero;stroke:none"
             d="m 0,0 c -33.742,-13.51 -66.012,-30.167 -96.35,-50.121 -17.035,34.358 -34.07,68.715 -51.105,103.073 -3.484,7.027 -14.345,6.526 -17.968,0 -20.911,-37.669 -41.822,-75.339 -62.734,-113.008 -29.282,13.645 -59.085,26.157 -89.332,37.51 -7.037,2.641 -15.503,-5.622 -12.727,-12.727 7.22,-18.483 15.293,-36.63 24.403,-54.26 8.749,-16.931 18.152,-36.091 32.245,-49.182 3.347,-3.109 8.763,-2.251 11.443,0.778 16.012,3.196 31.954,6.774 48.066,9.449 18.441,3.061 37.163,4.254 55.846,4.087 37.306,-0.335 74.155,-7.285 109.094,-20.34 5.079,-1.898 11.002,2.115 12.348,7.011 0.087,0.319 0.142,0.634 0.198,0.949 5.039,7.224 8.157,16.77 11.281,24.508 4.351,10.775 8.419,21.677 12.468,32.569 4.394,11.819 8.641,23.69 12.774,35.6 0.289,0.505 0.573,1.011 0.862,1.516 5.33,9.322 10.279,19.087 11.987,29.79 C 13.89,-5.958 8.2,3.283 0,0" /></g><g
           transform="translate(854.9268,365.8887)"
           id="g72"><path
             id="path74"
             style="fill:#4a1918;fill-opacity:1;fill-rule:nonzero;stroke:none"
             d="m 0,0 c -3.779,0.033 -4.991,-6.167 -1.367,-7.43 2.833,-0.987 5.637,-1.917 8.353,-3.077 -1.07,-0.283 -2.165,-0.875 -3.221,-1.847 -63.03,-57.955 -153.237,-70.016 -234.906,-56.192 -23.483,3.975 -46.188,10.529 -69.035,17.042 2.152,1.878 4.584,3.178 7.174,4.782 4.666,2.89 0.534,9.393 -4.217,8.07 -10.755,-2.994 -17.746,-16.077 -16.528,-26.601 0.4,-3.466 5.528,-3.873 6.206,-0.323 0.628,3.285 1.831,6.611 3.595,9.513 41.325,-17.857 87.553,-27.37 132.426,-28.667 42.456,-1.228 85.764,6.252 124.459,24.115 21.622,9.981 41.674,22.939 59.278,39 2.442,2.227 2.871,4.892 2.109,7.078 3.36,-2.276 7.092,-5.532 6.349,-9.478 C 19.548,-30 28.05,-32.738 30.746,-27.312 38.532,-11.646 11.752,-0.104 0,0" /></g><g
           transform="translate(586.9775,563.4458)"
           id="g76"><path
             id="path78"
             style="fill:#e7aa27;fill-opacity:1;fill-rule:nonzero;stroke:none"
             d="m 0,0 6.569,-13.311 14.69,-2.135 -10.63,-10.361 2.51,-14.63 L 0,-33.53 l -13.139,-6.907 2.509,14.63 -10.629,10.361 14.69,2.135 z" /></g><g
           transform="translate(658.2891,563.4458)"
           id="g80"><path
             id="path82"
             style="fill:#e7aa27;fill-opacity:1;fill-rule:nonzero;stroke:none"
             d="m 0,0 6.569,-13.311 14.69,-2.135 -10.63,-10.361 2.51,-14.63 L 0,-33.53 l -13.139,-6.907 2.509,14.63 -10.629,10.361 14.69,2.135 z" /></g><g
           transform="translate(733.0615,563.4458)"
           id="g84"><path
             id="path86"
             style="fill:#e7aa27;fill-opacity:1;fill-rule:nonzero;stroke:none"
             d="m 0,0 6.569,-13.311 14.69,-2.135 -10.63,-10.361 2.51,-14.63 L 0,-33.53 l -13.14,-6.907 2.51,14.63 -10.63,10.361 14.69,2.135 z" /></g><g
           transform="translate(808.834,563.4458)"
           id="g88"><path
             id="path90"
             style="fill:#e7aa27;fill-opacity:1;fill-rule:nonzero;stroke:none"
             d="m 0,0 6.569,-13.311 14.69,-2.135 -10.63,-10.361 2.51,-14.63 L 0,-33.53 l -13.139,-6.907 2.509,14.63 -10.629,10.361 14.69,2.135 z" /></g><g
           transform="translate(887.0693,563.4458)"
           id="g92"><path
             id="path94"
             style="fill:#e7aa27;fill-opacity:1;fill-rule:nonzero;stroke:none"
             d="M 0,0 6.569,-13.311 21.26,-15.446 10.63,-25.807 13.139,-40.437 0,-33.53 l -13.139,-6.907 2.51,14.63 -10.63,10.361 14.69,2.135 z" /></g><g
           transform="translate(891.4268,858.1284)"
           id="g96"><path
             id="path98"
             style="fill:#4a1918;fill-opacity:1;fill-rule:nonzero;stroke:none"
             d="m 0,0 c 0,-16.705 -13.543,-30.247 -30.248,-30.247 -16.705,0 -30.247,13.542 -30.247,30.247 0,16.705 13.542,30.248 30.247,30.248 C -13.543,30.248 0,16.705 0,0" /></g><g
           transform="translate(1529.5605,778.9399)"
           id="g100"><path
             id="path102"
             style="fill:#ffffff;fill-opacity:1;fill-rule:nonzero;stroke:none"
             d="m 0,0 c 0,24.171 -7.001,42.303 -20.994,54.396 -14.003,12.086 -35.475,18.132 -64.417,18.132 -11.139,0 -19.087,-2.23 -23.859,-6.68 -4.77,-4.458 -7.477,-9.864 -8.111,-16.224 -0.64,-6.366 -0.954,-17.654 -0.954,-33.878 v -91.614 c 9.543,-0.642 16.536,-0.955 20.995,-0.955 C -32.446,-76.823 0,-51.22 0,0 m -192.771,-228.082 c 11.13,0.312 19.085,2.863 23.857,7.634 4.771,4.772 7.471,10.415 8.112,16.939 0.633,6.516 0.954,17.894 0.954,34.117 V 36.741 c 0,13.361 0.477,24.813 1.432,34.355 l -34.355,-1.908 v 20.995 c 33.08,0.633 58.048,0.954 74.913,0.954 15.269,0 26.72,-0.164 34.356,-0.477 C -38.649,90.019 -5.808,82.467 15.031,67.995 35.861,53.516 46.284,32.604 46.284,5.248 46.598,-16.701 40.082,-36.428 26.721,-53.919 13.36,-71.417 -9.863,-83.503 -42.944,-90.183 c 5.405,-4.138 10.334,-9.066 14.792,-14.792 4.451,-5.726 10.498,-14.635 18.132,-26.721 l 32.447,-51.056 c 6.993,-11.139 12.801,-19.645 17.416,-25.528 4.607,-5.89 10.177,-10.661 16.701,-14.315 6.516,-3.66 14.553,-5.487 24.097,-5.487 v -15.747 H 20.519 c -8.59,7.315 -15.83,14.867 -21.711,22.665 -5.89,7.791 -12.809,17.894 -20.757,30.3 l -31.969,51.056 -6.204,10.021 c -5.092,8.589 -9.543,15.581 -13.36,20.995 -3.818,5.405 -7.956,10.176 -12.407,14.314 -2.863,-0.32 -7.321,-0.477 -13.36,-0.477 -8.589,0 -14.956,0.157 -19.086,0.477 v -92.568 c 0,-16.865 -0.478,-29.428 -1.432,-37.696 l 34.356,1.909 v -20.996 h -107.36 z" /></g><g
           transform="translate(1799.1543,693.0513)"
           id="g104"><path
             id="path106"
             style="fill:#ffffff;fill-opacity:1;fill-rule:nonzero;stroke:none"
             d="m 0,0 c 0,19.086 -4.294,35.466 -12.883,49.147 -8.588,13.674 -21.471,20.518 -38.648,20.518 -39.449,0 -62.83,-23.224 -70.144,-69.665 z m -115.231,-150.067 c -17.656,10.334 -31.575,25.126 -41.752,44.376 -10.185,19.243 -15.27,41.431 -15.27,66.564 0,22.262 5.085,43.183 15.27,62.746 10.177,19.564 24.41,35.228 42.706,47.001 18.287,11.765 39.045,17.654 62.268,17.654 18.133,0 34.512,-3.981 49.148,-11.928 C 11.766,68.391 23.382,56.543 31.97,40.797 40.559,25.051 44.855,5.726 44.855,-17.178 l -167.959,-2.863 c -0.324,-38.172 5.962,-67.92 18.845,-89.229 12.886,-21.315 32.843,-31.969 59.884,-31.969 14.63,0 29.658,3.817 45.092,11.451 15.427,7.635 27.273,17.015 35.548,28.153 l 11.453,-9.543 c -12.094,-18.453 -27.757,-32.134 -47.001,-41.036 -19.25,-8.902 -38.099,-13.361 -56.542,-13.361 -21.949,0 -41.752,5.175 -59.406,15.508" /></g><g
           transform="translate(1886.4727,549.4258)"
           id="g108"><path
             id="path110"
             style="fill:#ffffff;fill-opacity:1;fill-rule:nonzero;stroke:none"
             d="m 0,0 c 9.223,0 15.82,2.305 19.803,6.919 3.974,4.608 6.358,10.498 7.156,17.655 0.792,7.157 1.194,18.371 1.194,33.64 v 108.792 c 0,9.223 0.634,19.564 1.909,31.015 l -33.879,-1.908 v 20.041 c 18.767,0 32.209,1.11 40.32,3.34 8.111,2.221 14.391,5.405 18.848,9.543 H 69.188 V 36.264 c 0,-14.314 -0.64,-25.132 -1.909,-32.446 L 97.342,5.25 v -19.564 l -97.342,0 z" /></g><g
           transform="translate(1358.7207,360.6709)"
           id="g112"><path
             id="path114"
             style="fill:#ffffff;fill-opacity:1;fill-rule:nonzero;stroke:none"
             d="m 0,0 c -12.216,7.406 -21.75,17.494 -28.606,30.261 -6.857,12.766 -10.285,26.95 -10.285,42.553 0,15.446 3.111,29.945 9.339,43.501 6.225,13.554 15.522,24.547 27.897,32.981 12.371,8.429 27.305,12.647 44.801,12.647 17.335,0 33.252,-4.809 47.755,-14.421 l -1.182,12.766 h 12.766 V 105.44 h -8.51 c -1.578,14.659 -6.738,26.124 -15.485,34.399 -8.748,8.274 -19.977,12.412 -33.69,12.412 -11.193,0 -21.395,-3.114 -30.615,-9.338 -9.22,-6.228 -16.513,-15.095 -21.869,-26.598 -5.36,-11.506 -8.038,-24.823 -8.038,-39.955 0,-14.501 2.837,-27.464 8.511,-38.889 C -1.537,26.042 6.105,17.139 15.722,10.756 25.333,4.373 35.973,1.182 47.638,1.182 c 10.556,0 20.722,2.364 30.497,7.092 9.77,4.728 17.808,11.425 24.115,20.096 l 6.146,-4.966 C 99.254,10.638 88.773,1.691 76.953,-3.429 65.133,-8.548 53.312,-11.113 41.49,-11.113 26.042,-11.113 12.213,-7.406 0,0" /></g><g
           transform="translate(1570.5459,373.2002)"
           id="g116"><path
             id="path118"
             style="fill:#ffffff;fill-opacity:1;fill-rule:nonzero;stroke:none"
             d="m 0,0 c 5.437,9.457 8.156,21.196 8.156,35.226 0,15.918 -2.955,29.551 -8.865,40.9 -5.91,11.348 -14.776,17.021 -26.597,17.021 -11.665,0 -20.45,-4.809 -26.36,-14.42 -5.91,-9.616 -8.865,-21.437 -8.865,-35.463 0,-10.088 1.378,-19.504 4.136,-28.252 2.756,-8.747 6.934,-15.803 12.531,-21.158 5.593,-5.36 12.411,-8.039 20.45,-8.039 11.503,0 19.977,4.729 25.414,14.185 m -57.212,-15.958 c -9.065,5.12 -16.235,12.253 -21.514,21.396 -5.283,9.139 -7.92,19.462 -7.92,30.97 0,12.293 2.6,23.443 7.801,33.453 5.201,10.006 12.331,17.886 21.396,23.641 9.061,5.752 19.109,8.63 30.143,8.63 10.875,0 20.882,-2.642 30.025,-7.92 C 11.857,88.929 19.068,81.719 24.352,72.579 29.63,63.438 32.271,53.271 32.271,42.082 32.271,30.102 29.63,19.067 24.352,8.984 19.068,-1.104 11.898,-9.064 2.837,-14.894 c -9.065,-5.83 -19.112,-8.749 -30.143,-8.749 -10.875,0 -20.844,2.566 -29.906,7.685" /></g><g
           transform="translate(1622.9102,360.4336)"
           id="g120"><path
             id="path122"
             style="fill:#ffffff;fill-opacity:1;fill-rule:nonzero;stroke:none"
             d="m 0,0 c 4.569,0 7.839,1.142 9.812,3.428 1.967,2.283 3.11,5.12 3.427,8.511 0.314,3.388 0.551,9.021 0.709,16.904 l 0.237,53.902 c 0,6.62 0.314,11.74 0.946,15.367 L -1.655,97.167 v 9.93 c 9.299,0 15.68,0.508 19.149,1.536 3.465,1.023 6.384,2.638 8.748,4.846 h 6.856 c 0.314,-2.996 0.628,-7.801 0.946,-14.421 5.355,4.729 11.466,8.547 18.321,11.466 6.857,2.914 13.595,4.374 20.214,4.374 13.713,0 23.719,-4.296 30.025,-12.884 6.302,-8.592 9.457,-21.95 9.457,-40.074 V 17.968 c 0,-7.093 -0.318,-12.452 -0.946,-16.075 l 14.894,0.709 V -7.092 H 77.78 V 0 c 4.57,0 7.839,1.142 9.812,3.428 1.97,2.283 3.151,5.201 3.546,8.747 0.391,3.547 0.591,9.102 0.591,16.668 V 61.94 c -0.159,13.555 -2.364,23.76 -6.62,30.617 -4.255,6.856 -10.956,10.284 -20.095,10.284 -5.674,0 -11.311,-1.419 -16.904,-4.255 -5.596,-2.838 -10.206,-6.543 -13.83,-11.112 0.156,-1.737 0.238,-4.81 0.238,-9.221 L 34.28,17.968 C 34.28,10.875 33.963,5.516 33.334,1.893 L 48.229,2.602 V -7.092 L 0,-7.092 Z" /></g><g
           transform="translate(1851.2861,431.5947)"
           id="g124"><path
             id="path126"
             style="fill:#ffffff;fill-opacity:1;fill-rule:nonzero;stroke:none"
             d="M 0,0 C 0,9.456 -2.127,17.572 -6.384,24.351 -10.639,31.126 -17.021,34.517 -25.533,34.517 -45.077,34.517 -56.661,23.01 -60.286,0 Z m -57.094,-74.353 c -8.747,5.121 -15.644,12.45 -20.686,21.988 -5.046,9.533 -7.566,20.526 -7.566,32.979 0,11.031 2.52,21.397 7.566,31.088 5.042,9.694 12.093,17.454 21.159,23.287 9.06,5.83 19.345,8.748 30.852,8.748 8.983,0 17.1,-1.972 24.351,-5.91 C 5.83,33.885 11.584,28.016 15.841,20.214 20.096,12.412 22.224,2.837 22.224,-8.512 L -60.995,-9.93 c -0.159,-18.913 2.955,-33.652 9.338,-44.209 6.384,-10.56 16.273,-15.84 29.67,-15.84 7.248,0 14.695,1.892 22.341,5.674 7.643,3.784 13.514,8.43 17.613,13.949 l 5.675,-4.729 C 17.649,-64.228 9.89,-71.006 0.354,-75.416 c -9.537,-4.411 -18.875,-6.621 -28.014,-6.621 -10.875,0 -20.687,2.565 -29.434,7.684" /></g><g
           transform="translate(1922.6797,352.5146)"
           id="g128"><path
             id="path130"
             style="fill:#ffffff;fill-opacity:1;fill-rule:nonzero;stroke:none"
             d="m 0,0 c -6.146,1.968 -11.429,4.45 -15.839,7.445 l 0.946,-8.273 h -9.929 l -1.419,40.663 h 7.329 c 0.314,-6.465 2.088,-12.217 5.319,-17.258 3.229,-5.047 7.484,-9.024 12.766,-11.939 5.278,-2.918 10.912,-4.374 16.904,-4.374 6.775,0 12.804,1.614 18.085,4.847 5.28,3.229 7.921,7.839 7.921,13.83 0,4.412 -1.301,8.116 -3.901,11.112 -2.601,2.991 -5.833,5.474 -9.693,7.447 -3.864,1.969 -9.26,4.292 -16.194,6.975 -8.356,3.149 -15.054,6.104 -20.096,8.865 -5.046,2.755 -9.379,6.501 -13.002,11.228 -3.628,4.73 -5.438,10.717 -5.438,17.968 0,5.202 1.261,10.403 3.783,15.605 2.519,5.2 6.774,9.611 12.767,13.238 5.987,3.624 13.948,5.438 23.877,5.438 4.883,0 9.888,-0.791 15.012,-2.364 5.12,-1.577 9.889,-4.178 14.304,-7.802 l -0.474,8.984 h 9.93 V 80.262 h -7.565 c -0.473,9.139 -3.274,17.059 -8.394,23.759 -5.122,6.699 -12.334,10.048 -21.631,10.048 -7.093,0 -12.73,-1.772 -16.903,-5.319 -4.179,-3.546 -6.266,-7.765 -6.266,-12.647 0,-4.574 1.379,-8.434 4.137,-11.586 2.756,-3.155 6.184,-5.831 10.285,-8.037 4.096,-2.209 9.611,-4.651 16.548,-7.33 8.194,-3.309 14.813,-6.382 19.859,-9.219 5.043,-2.837 9.339,-6.583 12.885,-11.23 3.546,-4.65 5.319,-10.284 5.319,-16.904 0,-7.566 -1.931,-13.949 -5.792,-19.151 C 51.576,7.445 46.534,3.546 40.31,0.944 34.082,-1.655 27.426,-2.957 20.333,-2.957 12.922,-2.957 6.147,-1.97 0,0" /></g><g
           transform="translate(1504.8252,488.1572)"
           id="g132"><path
             id="path134"
             style="fill:#ffffff;fill-opacity:1;fill-rule:nonzero;stroke:none"
             d="M 0,0 C 1.941,1.072 3.578,2.448 4.911,4.13 4.854,5.056 4.824,6.65 4.824,8.911 l 0.087,25.036 c -2.724,2.029 -5.94,3.043 -9.648,3.043 -4.173,0 -7.535,-1.725 -10.085,-5.172 -2.551,-3.449 -3.824,-8.012 -3.824,-13.692 0,-5.912 1.128,-10.679 3.389,-14.301 2.261,-3.622 5.447,-5.433 9.563,-5.433 1.854,0 3.752,0.536 5.694,1.608 m -18.474,-3.172 c -2.839,1.795 -5.071,4.347 -6.693,7.65 -1.623,3.303 -2.435,7.156 -2.435,11.562 0,4.636 0.956,8.809 2.87,12.518 1.913,3.709 4.563,6.607 7.955,8.693 3.389,2.087 7.228,3.13 11.517,3.13 1.796,0 3.637,-0.247 5.521,-0.739 1.883,-0.494 3.433,-1.059 4.65,-1.696 v 11.91 c 0,2.202 0.088,4.086 0.262,5.651 l -6.172,-0.348 v 3.651 c 3.418,0 5.867,0.203 7.345,0.608 1.478,0.406 2.622,0.985 3.434,1.739 h 2.521 V 4.738 c 0,-1.855 -0.117,-3.825 -0.348,-5.911 l 6.172,0.347 V -4.477 H 5.693 C 5.403,-2.912 5.201,-1.405 5.085,0.044 3.404,-1.812 1.361,-3.26 -1.043,-4.303 c -2.405,-1.043 -4.999,-1.564 -7.781,-1.564 -3.594,0 -6.81,0.898 -9.65,2.695" /></g><g
           transform="translate(1560.9824,490.9834)"
           id="g136"><path
             id="path138"
             style="fill:#ffffff;fill-opacity:1;fill-rule:nonzero;stroke:none"
             d="m 0,0 c 1.999,3.477 3,7.793 3,12.952 0,5.854 -1.087,10.867 -3.261,15.04 -2.173,4.173 -5.432,6.259 -9.779,6.259 -4.29,0 -7.52,-1.769 -9.693,-5.303 -2.173,-3.536 -3.26,-7.883 -3.26,-13.04 0,-3.71 0.507,-7.172 1.521,-10.388 1.013,-3.216 2.549,-5.811 4.607,-7.781 2.057,-1.97 4.564,-2.955 7.52,-2.955 4.23,0 7.346,1.738 9.345,5.216 m -21.037,-5.868 c -3.334,1.882 -5.97,4.505 -7.911,7.867 -1.943,3.36 -2.912,7.157 -2.912,11.388 0,4.52 0.956,8.62 2.868,12.301 1.913,3.68 4.534,6.577 7.868,8.694 3.332,2.115 7.026,3.173 11.084,3.173 3.998,0 7.679,-0.972 11.04,-2.912 3.36,-1.944 6.012,-4.594 7.954,-7.955 1.942,-3.362 2.913,-7.1 2.913,-11.214 0,-4.406 -0.971,-8.463 -2.913,-12.17 -1.942,-3.71 -4.579,-6.638 -7.91,-8.782 -3.334,-2.143 -7.028,-3.215 -11.084,-3.215 -3.999,0 -7.665,0.942 -10.997,2.825" /></g><g
           transform="translate(1590.583,483.376)"
           id="g140"><path
             id="path142"
             style="fill:#ffffff;fill-opacity:1;fill-rule:nonzero;stroke:none"
             d="m 0,0 c -2.261,0.725 -4.203,1.638 -5.825,2.738 l 0.348,-3.042 h -3.652 l -0.52,14.952 h 2.694 c 0.115,-2.377 0.768,-4.491 1.956,-6.346 1.187,-1.855 2.752,-3.318 4.694,-4.39 1.942,-1.073 4.013,-1.608 6.216,-1.608 2.491,0 4.708,0.594 6.651,1.783 1.94,1.186 2.912,2.882 2.912,5.085 0,1.622 -0.478,2.984 -1.435,4.086 -0.956,1.099 -2.144,2.013 -3.563,2.738 -1.421,0.724 -3.407,1.578 -5.955,2.565 -3.073,1.158 -5.537,2.245 -7.39,3.259 -1.856,1.014 -3.448,2.391 -4.781,4.129 -1.334,1.739 -1.999,3.941 -1.999,6.608 0,1.912 0.462,3.825 1.39,5.738 0.927,1.911 2.491,3.534 4.695,4.867 2.202,1.333 5.128,2 8.78,2 1.796,0 3.637,-0.291 5.52,-0.869 1.883,-0.58 3.636,-1.537 5.259,-2.869 l -0.174,3.304 h 3.652 V 29.514 h -2.782 c -0.173,3.36 -1.204,6.273 -3.086,8.737 -1.884,2.462 -4.536,3.694 -7.955,3.694 -2.607,0 -4.68,-0.652 -6.215,-1.956 -1.537,-1.303 -2.304,-2.855 -2.304,-4.65 0,-1.683 0.507,-3.102 1.521,-4.26 1.013,-1.16 2.274,-2.144 3.782,-2.956 1.506,-0.812 3.535,-1.71 6.085,-2.694 3.013,-1.218 5.447,-2.348 7.302,-3.391 1.855,-1.044 3.434,-2.421 4.739,-4.13 1.303,-1.71 1.956,-3.781 1.956,-6.216 0,-2.781 -0.711,-5.128 -2.13,-7.041 C 18.965,2.738 17.11,1.305 14.822,0.349 12.531,-0.608 10.084,-1.086 7.476,-1.086 4.752,-1.086 2.26,-0.724 0,0" /></g><g
           transform="translate(1897.3369,939.6011)"
           id="g144"><path
             id="path146"
             style="fill:#e7aa27;fill-opacity:1;fill-rule:nonzero;stroke:none"
             d="m 0,0 c -33.742,-13.51 -66.012,-30.167 -96.35,-50.121 -17.035,34.358 -34.07,68.715 -51.104,103.073 -3.484,7.027 -14.346,6.526 -17.968,0 -20.912,-37.669 -41.823,-75.339 -62.734,-113.008 -29.283,13.645 -59.085,26.156 -89.332,37.509 -7.037,2.642 -15.503,-5.621 -12.728,-12.727 7.22,-18.482 15.293,-36.629 24.404,-54.26 8.748,-16.93 18.152,-36.09 32.245,-49.181 3.346,-3.11 8.762,-2.251 11.442,0.778 16.013,3.196 31.954,6.774 48.066,9.449 18.441,3.06 37.163,4.254 55.847,4.086 37.305,-0.335 74.154,-7.284 109.094,-20.339 5.079,-1.898 11.002,2.114 12.347,7.01 0.087,0.32 0.142,0.635 0.199,0.95 5.039,7.223 8.156,16.769 11.28,24.508 4.351,10.775 8.419,21.677 12.469,32.568 4.393,11.819 8.64,23.69 12.774,35.601 0.288,0.505 0.572,1.011 0.861,1.516 5.331,9.322 10.28,19.086 11.987,29.789 C 13.891,-5.958 8.201,3.283 0,0" /></g><g
           transform="translate(1926.9834,330.9805)"
           id="g148"><path
             id="path150"
             style="fill:#ffffff;fill-opacity:1;fill-rule:nonzero;stroke:none"
             d="m 0,0 c -3.78,0.033 -4.992,-6.167 -1.367,-7.43 2.833,-0.987 5.637,-1.917 8.352,-3.076 -1.069,-0.284 -2.164,-0.876 -3.22,-1.847 -63.031,-57.956 -153.237,-70.017 -234.907,-56.193 -23.483,3.975 -46.188,10.529 -69.034,17.042 2.152,1.878 4.583,3.178 7.174,4.782 4.665,2.89 0.534,9.393 -4.217,8.071 -10.756,-2.995 -17.746,-16.078 -16.529,-26.602 0.401,-3.465 5.528,-3.872 6.207,-0.322 0.627,3.285 1.83,6.61 3.594,9.512 41.325,-17.857 87.553,-27.37 132.427,-28.666 42.455,-1.228 85.763,6.252 124.458,24.115 21.623,9.98 41.674,22.939 59.279,38.999 2.441,2.227 2.871,4.893 2.108,7.078 3.36,-2.276 7.093,-5.532 6.35,-9.478 -1.127,-5.984 7.375,-8.723 10.071,-3.297 C 38.532,-11.646 11.751,-0.104 0,0" /></g><g
           transform="translate(1659.0332,528.5381)"
           id="g152"><path
             id="path154"
             style="fill:#e7aa27;fill-opacity:1;fill-rule:nonzero;stroke:none"
             d="M 0,0 6.569,-13.312 21.259,-15.446 10.63,-25.807 13.139,-40.438 0,-33.53 l -13.139,-6.908 2.51,14.631 -10.63,10.361 14.69,2.134 z" /></g><g
           transform="translate(1730.3447,528.5381)"
           id="g156"><path
             id="path158"
             style="fill:#e7aa27;fill-opacity:1;fill-rule:nonzero;stroke:none"
             d="M 0,0 6.569,-13.312 21.259,-15.446 10.63,-25.807 13.139,-40.438 0,-33.53 l -13.139,-6.908 2.51,14.631 -10.63,10.361 14.69,2.134 z" /></g><g
           transform="translate(1805.1172,528.5381)"
           id="g160"><path
             id="path162"
             style="fill:#e7aa27;fill-opacity:1;fill-rule:nonzero;stroke:none"
             d="M 0,0 6.569,-13.312 21.259,-15.446 10.63,-25.807 13.139,-40.438 0,-33.53 l -13.139,-6.908 2.509,14.631 -10.629,10.361 14.69,2.134 z" /></g><g
           transform="translate(1880.8896,528.5381)"
           id="g164"><path
             id="path166"
             style="fill:#e7aa27;fill-opacity:1;fill-rule:nonzero;stroke:none"
             d="M 0,0 6.569,-13.312 21.259,-15.446 10.63,-25.807 13.139,-40.438 0,-33.53 l -13.139,-6.908 2.51,14.631 -10.63,10.361 14.69,2.134 z" /></g><g
           transform="translate(1959.126,528.5381)"
           id="g168"><path
             id="path170"
             style="fill:#e7aa27;fill-opacity:1;fill-rule:nonzero;stroke:none"
             d="m 0,0 6.569,-13.312 14.69,-2.134 -10.63,-10.361 2.51,-14.631 L 0,-33.53 l -13.139,-6.908 2.509,14.631 -10.629,10.361 14.69,2.134 z" /></g><g
           transform="translate(1964.4229,821.2207)"
           id="g172"><path
             id="path174"
             style="fill:#ffffff;fill-opacity:1;fill-rule:nonzero;stroke:none"
             d="m 0,0 c 0,-16.706 -13.543,-30.248 -30.248,-30.248 -16.705,0 -30.247,13.542 -30.247,30.248 0,16.705 13.542,30.247 30.247,30.247 C -13.543,30.247 0,16.705 0,0" /></g></g></g></g></svg>